{
  "accessors": [
    {
      "bufferView": 2,
      "componentType": 5126,
      "count": 2332,
      "max": [
        0.6969685554504395,
        0.23208846151828766,
        2.269939661026001
      ],
      "min": [
        -0.23208846151828766,
        -0.23208846151828766,
        0.0
      ],
      "type": "VEC3"
    },
    {
      "bufferView": 2,
      "byteOffset": 27984,
      "componentType": 5126,
      "count": 2332,
      "max": [
        0.9999995231628418,
        0.9999995231628418,
        1.0
      ],
      "min": [
        -0.9999995231628418,
        -0.999999463558197,
        -1.0
      ],
      "type": "VEC3"
    },
    {
      "bufferView": 3,
      "componentType": 5126,
      "count": 2332,
      "max": [
        1.0,
        1.0,
        1.0,
        1.0
      ],
      "min": [
        -0.999805748462677,
        -1.0,
        -0.9999236464500427,
        -1.0
      ],
      "type": "VEC4"
    },
    {
      "bufferView": 1,
      "componentType": 5126,
      "count": 2332,
      "max": [
        0.9791041016578674,
        0.9796670079231262
      ],
      "min": [
        0.014484301209449768,
        0.01613844931125641
      ],
      "type": "VEC2"
    },
    {
      "bufferView": 1,
      "byteOffset": 18656,
      "componentType": 5126,
      "count": 2332,
      "max": [
        0.9791041016578674,
        0.9796670079231262
      ],
      "min": [
        0.014484301209449768,
        0.01613844931125641
      ],
      "type": "VEC2"
    },
    {
      "bufferView": 1,
      "byteOffset": 37312,
      "componentType": 5126,
      "count": 2332,
      "max": [
        0.9791041016578674,
        0.9796670079231262
      ],
      "min": [
        0.014484301209449768,
        0.01613844931125641
      ],
      "type": "VEC2"
    },
    {
      "bufferView": 0,
      "componentType": 5125,
      "count": 8904,
      "type": "SCALAR"
    },
    {
      "bufferView": 2,
      "byteOffset": 55968,
      "componentType": 5126,
      "count": 32,
      "max": [
        0.5376710891723633,
        0.07287800312042236,
        1.4280850887298584
      ],
      "min": [
        0.3627202808856964,
        -0.10207275301218033,
        1.2536946535110474
      ],
      "type": "VEC3"
    },
    {
      "bufferView": 2,
      "byteOffset": 56352,
      "componentType": 5126,
      "count": 32,
      "max": [
        0.9984703660011292,
        0.9984703660011292,
        -0.05527759715914726
      ],
      "min": [
        -0.9984704256057739,
        -0.9984703660011292,
        -0.05527787283062935
      ],
      "type": "VEC3"
    },
    {
      "bufferView": 3,
      "byteOffset": 37312,
      "componentType": 5126,
      "count": 32,
      "max": [
        0.05527764931321144,
        0.05527767166495323,
        0.9984710812568665,
        1.0
      ],
      "min": [
        -0.05527755990624428,
        -0.055277805775403976,
        -0.9984710812568665,
        1.0
      ],
      "type": "VEC4"
    },
    {
      "bufferView": 1,
      "byteOffset": 55968,
      "componentType": 5126,
      "count": 32,
      "max": [
        0.9851519465446472,
        0.9693111181259155
      ],
      "min": [
        0.292936772108078,
        0.01932699978351593
      ],
      "type": "VEC2"
    },
    {
      "bufferView": 0,
      "byteOffset": 35616,
      "componentType": 5125,
      "count": 48,
      "type": "SCALAR"
    },
    {
      "bufferView": 2,
      "byteOffset": 56736,
      "componentType": 5126,
      "count": 240,
      "max": [
        0.483249306678772,
        0.03557947278022766,
        1.3764071464538574
      ],
      "min": [
        0.41557270288467407,
        -0.03557983785867691,
        1.3052477836608887
      ],
      "type": "VEC3"
    },
    {
      "bufferView": 2,
      "byteOffset": 59616,
      "componentType": 5126,
      "count": 240,
      "max": [
        0.9920774102210999,
        0.9435209631919861,
        0.9435262680053711
      ],
      "min": [
        -0.9920774102210999,
        -0.9435209631919861,
        -0.9435237646102905
      ],
      "type": "VEC3"
    },
    {
      "bufferView": 1,
      "byteOffset": 56224,
      "componentType": 5126,
      "count": 240,
      "max": [
        0.0,
        0.0
      ],
      "min": [
        0.0,
        0.0
      ],
      "type": "VEC2"
    },
    {
      "bufferView": 0,
      "byteOffset": 35808,
      "componentType": 5125,
      "count": 240,
      "type": "SCALAR"
    }
  ],
  "asset": {
    "extras": {
      "author": "hate94neu (https://sketchfab.com/hate94neu)",
      "license": "CC-BY-4.0 (http://creativecommons.org/licenses/by/4.0/)",
      "source": "https://sketchfab.com/3d-models/farola-toon-streetlight-low-poly-e8749b5fd6f94e2eac14907964a775bd",
      "title": "Farola Toon - Streetlight - Low Poly"
    },
    "generator": "Sketchfab-12.68.0",
    "version": "2.0"
  },
  "bufferViews": [
    {
      "buffer": 0,
      "byteLength": 36768,
      "name": "floatBufferViews",
      "target": 34963
    },
    {
      "buffer": 0,
      "byteLength": 58144,
      "byteOffset": 36768,
      "byteStride": 8,
      "name": "floatBufferViews",
      "target": 34962
    },
    {
      "buffer": 0,
      "byteLength": 62496,
      "byteOffset": 94912,
      "byteStride": 12,
      "name": "floatBufferViews",
      "target": 34962
    },
    {
      "buffer": 0,
      "byteLength": 37824,
      "byteOffset": 157408,
      "byteStride": 16,
      "name": "floatBufferViews",
      "target": 34962
    }
  ],
  "buffers": [
    {
      "byteLength": 195232,
      "uri": "scene.bin"
    }
  ],
  "extensionsUsed": [
    "KHR_materials_transmission"
  ],
  "images": [
    {
      "uri": "textures/Farola_Tex_baseColor.png"
    },
    {
      "uri": "textures/Farola_Tex_metallicRoughness.png"
    },
    {
      "uri": "textures/Farola_Tex_normal.png"
    }
  ],
  "materials": [
    {
      "doubleSided": true,
      "name": "Farola_Tex",
      "normalTexture": {
        "index": 2
      },
      "pbrMetallicRoughness": {
        "baseColorFactor": [
          0.29299839481117557,
          0.29299839481117557,
          0.29299839481117557,
          1.0
        ],
        "baseColorTexture": {
          "index": 0
        },
        "metallicRoughnessTexture": {
          "index": 1
        },
        "roughnessFactor": 0.8817263782054048
      }
    },
    {
      "alphaMode": "BLEND",
      "doubleSided": true,
      "extensions": {
        "KHR_materials_transmission": {
          "transmissionFactor": 1.0
        }
      },
      "name": "Lampara_uv",
      "normalTexture": {
        "index": 2
      },
      "pbrMetallicRoughness": {
        "baseColorFactor": [
          1.0,
          1.0,
          1.0,
          0.25
        ],
        "baseColorTexture": {
          "index": 0
        },
        "metallicFactor": 0.0,
        "metallicRoughnessTexture": {
          "index": 1
        }
      }
    },
    {
      "doubleSided": true,
      "emissiveFactor": [
        1.0,
        1.0,
        1.0
      ],
      "name": "Light_Farola",
      "pbrMetallicRoughness": {
        "baseColorFactor": [
          0.8,
          0.8,
          0.8,
          1.0
        ],
        "metallicFactor": 0.0,
        "roughnessFactor": 0.8040408205773457
      }
    }
  ],
  "meshes": [
    {
      "name": "Farola_Farola_Tex_0",
      "primitives": [
        {
          "attributes": {
            "NORMAL": 1,
            "POSITION": 0,
            "TANGENT": 2,
            "TEXCOORD_0": 3,
            "TEXCOORD_1": 4,
            "TEXCOORD_2": 5
          },
          "indices": 6,
          "material": 0,
          "mode": 4
        }
      ]
    },
    {
      "name": "Farola_Lampara_uv_0",
      "primitives": [
        {
          "attributes": {
            "NORMAL": 8,
            "POSITION": 7,
            "TANGENT": 9,
            "TEXCOORD_0": 10
          },
          "indices": 11,
          "material": 1,
          "mode": 4
        }
      ]
    },
    {
      "name": "Farola_Light_Farola_0",
      "primitives": [
        {
          "attributes": {
            "NORMAL": 13,
            "POSITION": 12,
            "TEXCOORD_0": 14
          },
          "indices": 15,
          "material": 2,
          "mode": 4
        }
      ]
    }
  ],
  "nodes": [
    {
      "children": [
        1
      ],
      "matrix": [
        0.01442044973373413,
        0.0,
        0.0,
        0.0,
        0.0,
        3.201983063968268e-18,
        -0.01442044973373413,
        0.0,
        0.0,
        0.01442044973373413,
        3.201983063968268e-18,
        0.0,
        0.0,
        0.0,
        0.0,
        1.0
      ],
      "name": "Sketchfab_model"
    },
    {
      "children": [
        2
      ],
      "matrix": [
        1.0,
        0.0,
        0.0,
        0.0,
        0.0,
        0.0,
        1.0,
        0.0,
        0.0,
        -1.0,
        0.0,
        0.0,
        0.0,
        0.0,
        0.0,
        1.0
      ],
      "name": "Farola.fbx"
    },
    {
      "children": [
        3
      ],
      "name": "RootNode"
    },
    {
      "children": [
        4,
        5,
        6,
        7
      ],
      "matrix": [
        100.0,
        0.0,
        0.0,
        0.0,
        0.0,
        -1.629206793918314e-05,
        -99.99999999999868,
        0.0,
        0.0,
        99.99999999999868,
        -1.629206793918314e-05,
        0.0,
        0.0,
        0.0,
        0.0,
        1.0
      ],
      "name": "Farola"
    },
    {
      "mesh": 0,
      "name": "Farola_Farola_Tex_0"
    },
    {
      "mesh": 1,
      "name": "Farola_Lampara_uv_0"
    },
    {
      "mesh": 2,
      "name": "Farola_Light_Farola_0"
    },
    {
      "children": [
        8
      ],
      "matrix": [
        1.0,
        0.0,
        0.0,
        0.0,
        0.0,
        -1.6292067939183141e-07,
        0.9999999999999868,
        0.0,
        0.0,
        -0.9999999999999868,
        -1.6292067939183141e-07,
        0.0,
        0.449411004781723,
        -1.8166841186939564e-07,
        1.340827465057373,
        1.0
      ],
      "name": "Point"
    },
    {
      "children": [
        9
      ],
      "matrix": [
        1.0,
        0.0,
        0.0,
        0.0,
        0.0,
        2.220446049250313e-16,
        1.0,
        0.0,
        0.0,
        -1.0,
        2.220446049250313e-16,
        0.0,
        0.0,
        0.0,
        0.0,
        1.0
      ],
      "name": "Object_8"
    },
    {
      "name": "Object_9"
    }
  ],
  "samplers": [
    {
      "magFilter": 9729,
      "minFilter": 9987,
      "wrapS": 10497,
      "wrapT": 10497
    }
  ],
  "scene": 0,
  "scenes": [
    {
      "name": "Sketchfab_Scene",
      "nodes": [
        0
      ]
    }
  ],
  "textures": [
    {
      "sampler": 0,
      "source": 0
    },
    {
      "sampler": 0,
      "source": 1
    },
    {
      "sampler": 0,
      "source": 2
    }
  ]
}
